<svg xmlns="http://www.w3.org/2000/svg" width="43.75" height="35" viewBox="0 0 43.75 35">
  <path id="Icon_awesome-theater-masks" data-name="Icon awesome-theater-masks" d="M14.141,16.758a5.112,5.112,0,0,0-3.933,5.065,8.119,8.119,0,0,1,3.411-2.114ZM6.549,20.166,4.38,7.895A.339.339,0,0,1,4.4,7.714a26.691,26.691,0,0,1,12.92-3.35c.11,0,.221.012.332.013A6.565,6.565,0,0,1,21.175,2.6a33.242,33.242,0,0,1,3.909-.364A4.393,4.393,0,0,0,22.229.39,31.017,31.017,0,0,0,2.27,3.9a4.517,4.517,0,0,0-2.2,4.752L2.241,20.924c.973,5.5,9.319,9.712,13.976,9.712a6.293,6.293,0,0,0,.684-.055,18.355,18.355,0,0,1-2.7-4.62c-3.255-.887-7.25-3.529-7.651-5.8Zm6.668-9.4a2.7,2.7,0,0,0-.278-.779,4.306,4.306,0,0,1-2.414,1.252,4.31,4.31,0,0,1-2.7-.353,2.688,2.688,0,0,0,.006.827,2.734,2.734,0,0,0,5.385-.947Zm28.262-2.5a30.987,30.987,0,0,0-19.959-3.51A4.526,4.526,0,0,0,17.827,8.47L15.658,20.741c-1.052,5.951,6.513,13.417,10.822,14.174s13.977-3.677,15.029-9.628l2.169-12.271a4.516,4.516,0,0,0-2.2-4.752ZM22.8,14.882a2.734,2.734,0,0,1,5.386.947,2.7,2.7,0,0,1-.278.779,4.54,4.54,0,0,0-5.113-.9,2.67,2.67,0,0,1,.005-.828Zm4.817,13.587a7.286,7.286,0,0,1-6.087-7.718,11.255,11.255,0,0,0,6.8,3.676,11.274,11.274,0,0,0,7.651-1.135,7.3,7.3,0,0,1-8.366,5.176Zm8.907-10.345a4.541,4.541,0,0,0-5.114-.9,2.688,2.688,0,0,1,.006-.827,2.734,2.734,0,0,1,5.386.947,2.686,2.686,0,0,1-.278.779Z" transform="translate(0)" fill="#fff"/>
</svg>
