<svg xmlns="http://www.w3.org/2000/svg" width="34.045" height="35" viewBox="0 0 34.045 35">
  <path id="Icon_material-settings" data-name="Icon material-settings" d="M33.435,22.215a13.638,13.638,0,0,0,.123-1.715,13.638,13.638,0,0,0-.123-1.715L37.127,15.9a.883.883,0,0,0,.21-1.12l-3.5-6.055a.88.88,0,0,0-1.068-.385l-4.357,1.75a12.786,12.786,0,0,0-2.958-1.715L24.79,3.735A.853.853,0,0,0,23.932,3h-7a.853.853,0,0,0-.858.735L15.41,8.373a13.445,13.445,0,0,0-2.958,1.715L8.095,8.338a.854.854,0,0,0-1.068.385l-3.5,6.055a.863.863,0,0,0,.21,1.12L7.43,18.785A13.878,13.878,0,0,0,7.307,20.5a13.878,13.878,0,0,0,.123,1.715L3.737,25.1a.883.883,0,0,0-.21,1.12l3.5,6.055a.88.88,0,0,0,1.068.385l4.358-1.75a12.786,12.786,0,0,0,2.958,1.715l.665,4.637a.853.853,0,0,0,.858.735h7a.853.853,0,0,0,.858-.735l.665-4.638a13.445,13.445,0,0,0,2.958-1.715l4.357,1.75a.854.854,0,0,0,1.068-.385l3.5-6.055a.883.883,0,0,0-.21-1.12l-3.693-2.888Zm-13,4.41A6.125,6.125,0,1,1,26.557,20.5,6.132,6.132,0,0,1,20.432,26.625Z" transform="translate(-3.406 -3)" fill="#fff"/>
</svg>
