<svg xmlns="http://www.w3.org/2000/svg" width="24.75" height="35" viewBox="0 0 24.75 35">
  <path id="Icon_awesome-lightbulb" data-name="Icon awesome-lightbulb" d="M6.754,31.058a2.145,2.145,0,0,0,.377,1.209l1.2,1.756A2.267,2.267,0,0,0,10.206,35h4.339a2.267,2.267,0,0,0,1.873-.976l1.2-1.756A2.144,2.144,0,0,0,18,31.058l0-2.622H6.751l0,2.622ZM0,12.031a11.775,11.775,0,0,0,3.063,7.914A19.519,19.519,0,0,1,6.734,26.2c0,.018,0,.036.008.053H18.008c0-.018,0-.035.008-.053a19.519,19.519,0,0,1,3.671-6.251,11.775,11.775,0,0,0,3.063-7.914A12.207,12.207,0,0,0,12.336,0,12.152,12.152,0,0,0,0,12.031ZM12.375,6.562A5.555,5.555,0,0,0,6.75,12.031a1.125,1.125,0,0,1-2.25,0,7.776,7.776,0,0,1,7.875-7.656,1.094,1.094,0,1,1,0,2.187Z" transform="translate(0 0)" fill="#fff"/>
</svg>
